<svg xmlns="http://www.w3.org/2000/svg" width="2880" height="2880" viewBox="0 0 2160 2160">
  <path d="M1045.5 623.7c-19.7 1.3-60 8.1-71.6 12-5 1.7-5.5 2.2-9.7 9.8-20.4 36.5-40.6 92.2-49.2 136.2-5.9 30.2-7.4 45-7.4 75.3 0 36.3 2.8 57.5 11.9 89.1 6.3 21.6 22.2 57.8 26.1 59.3.9.4 21.2 1.2 45 1.8 41.6 1.1 43.4 1.1 45.4-.7 1.1-1 2-2.6 2-3.5 0-1-2.5-6.9-5.5-13.1-14.1-29.4-24-63.3-29.1-99.9-2.1-15.6-3-60.9-1.5-79.3 4.7-56.3 20.6-113.9 47.1-171l7.8-16.7-3.1.2c-1.8.1-5.4.3-8.2.5"/>
  <path d="M1098.5 625.4c-3.2 3.2-16.9 30.8-25.2 50.5-13 31.2-25.1 72.1-30.2 102-2.4 14.2-2.6 18.2-.9 19.9 2.2 2.2 5 1.2 16.7-6.1 45.5-28.8 90.6-48.8 135.7-60.1 29.1-7.3 51.9-10.4 82.4-11.3 23-.6 41.2.4 60.3 3.3 14.8 2.2 14.8 1.5.2-10.1-61.8-49.1-141.2-81.5-217-88.5-6.6-.6-13.7-1.3-15.8-1.5-3-.4-4.2-.1-6.2 1.9M904 659.9c-28.4 12.9-54.1 28.1-78.7 46.5-9.1 6.8-9.3 7-12.2 14.6-4.7 12.5-12.9 38.3-16.2 51.4-20 79.2-17.6 148.3 7.3 212.4 2.8 7.3 4.6 10.6 6.2 11.3 2 .8 50 5.1 73.8 6.5 15.9.9 17.4-.5 12.4-11.7-9.4-21.5-18-52.4-22-79.4-5.6-37.2-5-81.9 1.4-121.3 6.6-40.3 18.8-81.6 35.6-120.4 5-11.4 5.8-14.9 3.6-14.8-.4.1-5.4 2.2-11.2 4.9M1270 756.6c-35.5 3.1-57.4 7.2-86.7 16.5-47.4 15-99.4 42.6-136.2 72.2-4.1 3.3-8.1 6-8.9 6-1.1 0-1.3 1.8-.7 10.1 2.1 32.5 8.3 63 18.7 90.7 2.9 7.9 4.5 10.9 6.2 11.7 3 1.3 3.6 1 19.2-12.1 48-40.1 104.4-70.8 159.2-86.7 69.4-20.1 138.8-19.5 207.1 1.6 6.2 2 11.5 3.4 11.7 3.2.6-.6-8.9-19.7-16.1-32.3-12.1-21.5-30.9-48.8-38.3-55.8s-50.2-19.2-81.7-23.2c-11.7-1.5-44.6-2.7-53.5-1.9M746 783.7c-11 13.8-29.6 41.2-37.9 56-19.8 35.1-36.2 79.9-43.5 119.2-2.3 12.2-2.6 12 18.1 16.9 22.8 5.5 37.4 8.5 59.2 12.2 16.9 2.8 18.5 2.9 20.7 1.5 1.3-.8 2.4-2.2 2.4-3 0-.9-1.5-6.6-3.4-12.8-17.4-57.3-19.2-125.2-5.2-190.2 3.6-16.5 3.1-16.5-10.4.2"/>
  <path d="M1311 888.1c-74.3 7.7-151.5 43.8-217.3 101.7-11.4 10.1-13.2 12.9-10.1 16.4 1.9 2.1 2.1 2.1 39.7 1.4 131.4-2.3 254.5-13.3 354.4-31.7 15.3-2.9 15.3-2.9 12.5-16.2-2.2-10.4-9.4-35.2-11.5-39.7-1.4-2.9-6.3-5.4-22.7-11.7-25-9.6-54-16.6-81-19.7-14.7-1.7-49.3-2-64-.5M399.7 965.5c-8.1 3.1-14.1 8.8-18 17.2l-2.2 4.8-.3 199.3c-.2 138 .1 199.9.8 201.2 1 1.9 2.3 2 38.8 2 28.1 0 38.1-.3 39-1.2s1.2-18.5 1.2-72.9c0-63.9.2-71.9 1.6-73.3.8-.9 2.2-1.6 3.1-1.6 2.1 0 82.1 35 83.7 36.6 1 .9 1.4 13.9 1.8 55.8.4 29.9.9 55 1.3 55.5.7 1.2 74 1.6 76.9.5 1.4-.6 1.6-7.6 1.5-70.3-.1-38.3-.4-109.9-.8-159.1l-.7-89.5-2.5-6.6c-4.5-11.8-12.6-20.8-23.4-26.1-2.7-1.4-14.4-5.3-26-8.8-57.5-17-86.4-28.3-133-51.8-24.2-12.3-25.2-12.7-32-12.9-4.3-.2-8.5.3-10.8 1.2m109.2 128.4c4.9 2.5 9.4 7.7 13 14.9 1.5 3.1 10.1 22.1 19.1 42 11.8 26.4 15.9 36.7 15.1 37.5-1.8 1.8-14.6-1.8-26.6-7.7-6.1-2.9-16.6-9-23.5-13.6-18.1-12-28-16.5-48-21.7-1.9-.5-3.5-1.4-3.5-2 0-1.9 39.5-48.2 42.4-49.8 3.6-2 7.5-1.8 12 .4M1739.4 966.2c-2.7 1.3-14.4 7.1-26 12.9-42.1 21.4-72.8 33.3-128.9 49.9-11.5 3.5-23.2 7.4-26 8.8-10.8 5.3-18.9 14.3-23.4 26.1l-2.5 6.6-.7 89c-.4 48.9-.7 120.6-.8 159.1-.1 63.2.1 70.2 1.5 70.8 2.9 1.1 76.2.7 76.9-.5.4-.5.9-25.6 1.3-55.5.4-41.9.8-54.9 1.8-55.8 1.6-1.6 81.6-36.6 83.7-36.6.9 0 2.3.7 3.1 1.6 1.4 1.4 1.6 9.4 1.6 73.3 0 54.4.3 72 1.2 72.9s10.9 1.2 39 1.2c36.5 0 37.8-.1 38.8-2 .7-1.3 1-63.2.8-201.2l-.3-199.3-2.6-5.6c-5.1-10.9-14.5-17.2-26.4-17.6-5.6-.3-8 .1-12.1 1.9m-76.5 127.3c3 1.5 42.6 47.8 42.6 49.8 0 .6-1.6 1.5-3.5 2-20 5.2-29.9 9.7-48 21.7-6.9 4.6-17.4 10.7-23.5 13.6-12 5.9-24.8 9.5-26.6 7.7-.8-.8 3.3-11.1 15.1-37.5 9-19.9 17.6-38.9 19.1-42 6.7-13.4 16.6-19.6 24.8-15.3M674.3 1051.9c-5.3 1.4-8.4 4-10.5 8.9-2.1 4.6-2.1 4.7-1.2 166.9.8 142.6 1.1 162.5 2.4 163.3 1.8 1.2 78.9 1.3 80.7.2 1-.6 1.3-13 1.5-54.3l.3-53.4h2.8c2.7 0 4.2 2.4 29.7 48.5 14.8 26.7 28 50.6 29.4 53.3l2.6 4.7 50.3-.2 50.2-.3.3-2.2c.2-1.4-13.4-27.1-37.2-70.5-20.7-37.6-37.6-69.3-37.6-70.4 0-2.8 2.4-4.7 9-7.5 11.5-4.7 21.3-11.3 30.5-20.4 16.1-16 23.1-32.1 24.2-55.5.6-12.7-.8-21.5-4.9-31.7-7.1-17.5-23.9-33.8-46.8-45.2-25.8-13-49.7-18.7-118-28.5-40.9-5.9-52.5-7-57.7-5.7m92.5 72.6c15.6 1.6 23.9 4.1 32.3 9.7 10.5 7 15.9 16.7 15.9 28.2-.1 15.1-10.6 23.9-31.9 26.7-11.4 1.6-33.3-.1-36.2-2.7-1.8-1.6-1.9-3.6-1.9-31 0-36.7-2.2-33.5 21.8-30.9M1453.5 1056.9c-15.9 2.1-30.7 4.1-32.8 4.5-7 1.3-6.6-2.8-7.4 77.7l-.6 72.4-2.8 2.7c-2.9 3-7.4 3.7-10.9 1.8-1.1-.6-29.2-32.5-62.5-70.9-37.4-43.2-61.4-70.1-62.8-70.4-3.8-.9-64 2.8-66.3 4.1-1.2.6-2.7 2.6-3.3 4.3-.8 2.3-1.1 46.1-1.1 152.6v149.4l2.5 2.4 2.4 2.5h73l2.8-2.4 2.8-2.4.5-60.2.5-60.2 2.8-2.4c2.7-2.3 6.8-3.1 10.2-1.8.9.4 25.3 26.2 54.2 57.3s56 60.1 60.2 64.3l7.6 7.8h33.8c21.1 0 34.5-.4 35.7-1 1.1-.6 2.4-1.9 3-3 .6-1.2 1.4-57.5 2-163.9.9-143.1.9-162.4-.4-165-2.7-5.2-3.7-5.2-43.1-.2M949.3 1080.4l-2.8 2.4-.3 67.4c-.2 37 0 104.8.4 150.6l.6 83.4 2.3 2.6 2.3 2.7 107.8.3 107.7.2 2.4-2.2 2.3-2.1v-29.9c0-17.6-.4-30.7-1-31.8-2.1-4-4.9-4.1-68-3.4-33.3.4-62.2.4-64.3 0-7.4-1.4-7.7-2.2-7.7-23v-18.5l2.6-2c2.6-2.1 3.6-2.1 51.9-2.1 50.7 0 54.5-.3 56.5-4 .6-1.1 1-14.3 1-32v-30.1l-2.5-2.4-2.4-2.5h-102l-2.8-2.4-2.8-2.4v-20.6c0-20 .1-20.6 2.3-22.8l2.3-2.3 65.7-.5c67.2-.5 69.1-.6 70.5-4.3.3-.8.9-14.9 1.3-31.4.7-31.9.3-36.2-3.8-38.4-1.5-.8-18.6-.8-61.7.1-44.9.9-69.5.9-99.8.1-56.4-1.5-54.6-1.6-58 1.3M636.2 1460.5c-24.4 5.3-36.6 31.4-25.8 55 8.1 17.8 30.7 26 50.8 18.5 15.8-5.9 24.6-20.2 23.6-38.4-1-18.5-13.1-32.1-31.8-35.6-6.6-1.3-8.9-1.2-16.8.5m19.1 14.8c8.9 3.8 13.9 11.8 13.9 22.5.1 15.1-8.9 24.5-23.3 24.5-5.3 0-7.6-.5-11.7-2.8-16.9-9.2-15.8-36.3 1.8-43.9 4.4-1.9 15-2 19.3-.3M1079 1460.4c-25.4 5.5-37.8 32.3-26 56.2 13.5 27.5 57.7 26.6 70.8-1.4 2.4-5.1 2.7-6.9 2.7-16.7 0-10-.3-11.6-2.9-17.2-3.4-7.3-11.3-15.4-18-18.3-4.8-2-14.3-4.1-18.5-3.9-1.4 0-5.1.6-8.1 1.3m20.1 15.9c13.7 7.3 16.8 27.4 6 39-4.4 4.8-9.8 7-17.1 7-16.7 0-27.4-15-22.6-31.7 3.1-10.7 11.2-16.6 22.7-16.6 5 0 7.7.6 11 2.3M1325.2 1460.1c-35.8 7-42.7 55.9-10.3 72.3 11.6 5.9 25.5 5.7 37.3-.6 5.8-3.1 13.8-10.8 13.8-13.3 0-.7-2.3-3-5.1-5l-5.1-3.6-3.6 3.9c-10.6 11.4-27.9 11.7-37 .7-5.8-7.1-7-19.2-2.8-28 4.1-8.8 10.2-12.5 20.6-12.5 7.5 0 12.4 2.3 17.6 8.3l3.9 4.4 5.7-4c3.2-2.3 5.8-4.4 5.8-4.8s-2.1-3-4.6-5.8c-5.2-5.7-14-10.5-22.3-12.1-6.1-1.1-7.8-1.1-13.9.1M506.4 1462.2c.3 1.3 6.6 18.3 13.9 37.8l13.4 35.5 9.5.3 9.5.3 13.6-36.3c7.5-20 13.7-37 13.9-37.8.2-1.2-1.1-1.5-7.6-1.5h-7.9l-10.5 29.3c-6.4 17.8-10.9 28.8-11.3 27.9-.4-.7-5.2-13.4-10.5-28.2-5.4-14.9-10.2-27.6-10.7-28.3-.6-.8-3.6-1.2-8.4-1.2-7.3 0-7.5.1-6.9 2.2M721.5 1461.2c-.3.7-.4 17.7-.3 37.8l.3 36.5 27.8.3 27.8.2-.3-6.7-.3-6.8-19.7-.3-19.8-.2-.2-30.8-.3-30.7-7.3-.3c-5.2-.2-7.4.1-7.7 1M810 1498v38h54v-14h-39v-18l16.8-.2 16.7-.3.3-6.3.3-6.2H825v-17l19.3-.2 19.2-.3v-13l-26.7-.3-26.8-.2zM900.5 1461.2c-.3.7-.4 17.7-.3 37.8l.3 36.5 7.8.3 7.7.3-.2-37.8-.3-37.8-7.3-.3c-5.2-.2-7.4.1-7.7 1M957 1497.9v38.1h19.8c21.9 0 27.7-1 33.3-5.7 9.2-7.8 9-23.1-.4-30.9l-3.6-2.9 3.3-3.3c7.3-7.1 6.8-19-1.1-26.4-5.7-5.5-9-6.2-31-6.6l-20.3-.4zm39.1-21c3.1 3.2 3.6 6.1 1.6 10.1-1.7 3.4-6.6 4.9-16.9 4.9l-8.8.1v-18h10.6c10.3 0 10.6.1 13.5 2.9m2.3 30.2c2.8 3.2 3.4 7.6 1.5 11.1-1.8 3.4-7 4.8-17.9 4.8h-10v-19h23.8zM1163.5 1461.2c-.3.7-.4 17.7-.3 37.8l.3 36.5 27.8.3 27.7.2v-14h-40l-.2-30.8-.3-30.7-7.3-.3c-5.2-.2-7.4.1-7.7 1M1401 1498v38l27.8-.2 27.7-.3v-13l-20.2-.3-20.3-.2v-62h-15zM1485.4 1461.3c-.3.8-.4 13.1-.2 27.3.3 24.8.4 26.1 2.7 31.2 4.9 10.8 15.2 16.7 29.6 16.7s24.7-5.9 29.6-16.7c2.3-5.2 2.4-6 2.4-32.3v-27h-15l-.5 26.5c-.6 29.9-.7 30.3-8 34-5.1 2.6-11.9 2.6-17 0-7.3-3.7-7.4-4.1-8-34l-.5-26.5-7.3-.3c-5.5-.2-7.4 0-7.8 1.1M1590 1497.9v38.1h19.8c22.5 0 27.9-1 33.9-6.3 4.5-3.9 6.3-8.2 6.3-14.7 0-6.7-1.9-11-6.7-15l-4-3.4 3.3-3.3c9-9 5.9-24-6.3-30-5.7-2.7-6.2-2.8-26-3.1l-20.3-.4zm39.4-21.3c3 3.1 3.5 7.7 1.1 11.1-2.1 3-7.4 4.3-17.2 4.3h-8.3v-18h10.9c10.4 0 10.9.1 13.5 2.6m.7 28.7c3.7 2.8 5 8.8 2.8 12.9-1.8 3.4-7 4.8-17.9 4.8h-10v-19h11.8c7.6.1 12.3.5 13.3 1.3"/>
</svg>
