<svg height="32" viewBox="0 0 32 32" width="32" xmlns="http://www.w3.org/2000/svg"><path d="m19.8555691 22.6716935c1.3863218-1.5017529 2.5355163-3.2630713 3.3650513-5.2454697 1.874651.8370763 3.5644871 2.0135937 4.9913802 3.4514241.0285044-.0762275-.0793546.2126127-.169798.4295432-2.5148263 1.5788168-5.2681343 2.1804198-8.1866335 1.3645024zm-1.0743567-.362303c1.4478944-1.4847175 2.6429329-3.2575268 3.4874725-5.2728962-1.7180346-.6411882-3.5716334-1.0042581-5.5060328-1.0344461-.949955 1.5882342-2.1137925 2.9725189-3.4333062 4.1372577 1.2939451.2293943 2.595827.6941387 3.8949695 1.4249063.5234346.294432 1.0425288.5420528 1.556897.7451783zm-7.6028528-2.3396871c-2.70037106-3.7384628-3.76854028-8.220583-3.28418947-12.53559284.03508402-.03331443-.42969.42018558-.67954093.69722827-1.99819879 2.21566647-3.21462919 5.15010757-3.21462919 8.36866117 0 1.8416734.39828229 3.590323 1.11341259 5.1645144 1.95524497-1.0493539 3.99194709-1.6575391 6.064947-1.694811zm17.6231217-5.7007065c-3.5932562-3.4232465-8.6376997-5.23292133-13.8832617-4.55371685.3036593 1.80888525.9160967 3.59612085 1.8573711 5.28684595 4.5636074.0704559 8.70337 1.8877789 11.7801149 4.8127963-.0171139.0623812.0880308-.3274472.1462501-.5892281.1951308-.8773972.2980443-1.7895273.2980443-2.7256942 0-.4800957-.0270658-.9538698-.0797549-1.4198798-.0577238-.5105399-.1606546-1.0436355-.1187638-.8111233zm-.4523376-1.760577c-3.7000469-2.96627804-8.5480277-4.46456311-13.5692953-3.81239991-.160413-1.54340613-.1001109-3.09232167.1685592-4.6006663-.0512689.00634741.179593-.0220613.3476371-.03812055.3962124-.03786432.7978219-.05723314 1.2039553-.05723314 5.2408495 0 9.7283914 3.22529277 11.5860139 7.7992663.144219.3551066.3054499.8348305.2631298.7091536zm-19.27157034-6.06713654c-.81318028 4.53652694.21749209 9.37149374 3.19897784 13.28233424 1.4050677-1.1638175 2.638484-2.5813063 3.6266122-4.2327356-1.9742099-3.544698-2.5854072-7.48956506-1.9979489-11.22121174.0315514-.00666083-.1763664.03778592-.3107011.06976322-1.416119.33709593-2.7388296.91514264-3.92241239 1.68842087-.2836313.18530677-.67248225.47104817-.59452765.41342901zm-6.07757335 18.55899314c.43236754-.3193981.90145717-.6338155 1.40449507-.9340156 4.03193208-2.406153 8.44143362-2.9648912 12.81982032-.5020487 4.0211738 2.2619103 7.7861842 1.7611402 11.1202523-.4522935.623045-.4136295 1.1772779-.8565618 1.6554323-1.2990561v1.3223059c-.341056.2766757-.7088859.5486624-1.1023382.809869-3.6220499 2.4046201-7.7783837 2.9574387-12.1636077.4907503-4.0219055-2.2623219-8.06491419-1.7500228-11.81710151.4891857-.71262491.4252762-1.35311475.8810093-1.91060034 1.336016-.00212166.0017316-.00423908.0034607-.00635225.0051872zm2.97918472 1.2312393c3.59178266-1.6651805 7.43026707-1.8131643 11.24513067.3326964 3.4814443 1.9583125 6.7708757 1.8457977 9.7548693.3438776v1.1090971c-3.1428006 1.4333323-6.6155644 1.4602319-10.2451306-.5813991-3.6450216-2.0503247-7.30737666-1.8216713-10.75486937-.0939533z" fill-rule="evenodd"/></svg>